<svg xmlns="http://www.w3.org/2000/svg" width="113.85" height="46.22" viewBox="0 0 113.85 46.22"><defs><style>.cls-1{fill:#231f20;}</style></defs><g id="Layer_2" data-name="Layer 2"><g id="Layer_1-2" data-name="Layer 1"><path class="cls-1" d="M20.12,30.34a4.09,4.09,0,0,1,3.45,1.72l.39.44a3.87,3.87,0,0,0,.14-.68c.13-.89.48-1.34,1.06-1.34a1.24,1.24,0,0,1,1.15.72,1.76,1.76,0,0,1,.1.43,18.75,18.75,0,0,1-.29,1.87,25,25,0,0,0-.39,4.61V39a11.83,11.83,0,0,0,.53,4.22,1.61,1.61,0,0,1,.19.72.8.8,0,0,1-.24.58.9.9,0,0,1-.67.24,1.32,1.32,0,0,1-.62-.15,2.62,2.62,0,0,1-1.15-2.06l-.2-1.11-.43.58a4.71,4.71,0,0,1-2.3,1.78,4.2,4.2,0,0,1-1.25.19,3.67,3.67,0,0,1-3-1.61,7.45,7.45,0,0,1-1.37-4.2v-.67q0-4.18,2.45-6.24A3.61,3.61,0,0,1,20.12,30.34Zm.43,2.2a1.93,1.93,0,0,0-.82.24,4.14,4.14,0,0,0-1.63,2,7.43,7.43,0,0,0-.62,3c0,.28,0,.72.09,1.29a3.68,3.68,0,0,0,1.06,2.4,1.33,1.33,0,0,0,.67.24,1.87,1.87,0,0,0,.77-.24,4.85,4.85,0,0,0,2.26-3.36,5.84,5.84,0,0,0,.14-1,5.74,5.74,0,0,0,0-.77,2.3,2.3,0,0,0-.05-.48c0-.19-.05-.37-.07-.53s0-.29,0-.38v-.2a2.34,2.34,0,0,0-.51-1.53A1.5,1.5,0,0,0,20.55,32.54Z" transform="translate(-15.22 -3.84)"/><path class="cls-1" d="M29.53,27.7s-.2-.05-.48-.05-.8,0-1.73.05-1.62,0-2.07,0a3.93,3.93,0,0,1-1.39-.14,1,1,0,0,1-.62-1,1,1,0,0,1,.09-.48.9.9,0,0,1,.7-.48c.34-.06,1.21-.13,2.62-.19.41,0,.84,0,1.29,0L29,25.37l.43,0c.16,0,.24-.45.24-1.27s0-1.69.1-2.61.22-1.49.48-1.68a.88.88,0,0,1,.57-.2,1.22,1.22,0,0,1,.87.34,1.68,1.68,0,0,1,.38,1.2c0,.1,0,.72-.1,1.87s-.09,1.67-.09,1.92c0,0,0,.11,0,.22a1.58,1.58,0,0,1,0,.26l.91-.05c.67,0,1.44,0,2.3,0a2.52,2.52,0,0,1,1.92.52,1.17,1.17,0,0,1,.29.77.94.94,0,0,1-.53.87,4.72,4.72,0,0,1-.79.07l-1.66,0c-.67,0-1.2,0-1.58.05l-1,0-.1,3.41c0,.44,0,1,0,1.7s-.06,1.29-.08,1.8,0,.91,0,1.2v1.32c0,.66,0,1.16.05,1.51s.09.8.17,1.35a3.2,3.2,0,0,0,.43,1.29,1.47,1.47,0,0,0,.74.63h.19c.39,0,.86-.58,1.42-1.73s1.08-1.73,1.56-1.73a1.19,1.19,0,0,1,.48.14,1,1,0,0,1,.58.92,4.71,4.71,0,0,1-.53,1.72c-.87,2-1.94,2.93-3.22,2.93h-.05q-4.08,0-4.08-6.86V36.14q.2-6.72.2-7.92Z" transform="translate(-15.22 -3.84)"/><path class="cls-1" d="M39.37,27.7s-.2-.05-.48-.05-.81,0-1.73.05-1.62,0-2.07,0a3.93,3.93,0,0,1-1.39-.14,1,1,0,0,1-.62-1,1,1,0,0,1,.09-.48.9.9,0,0,1,.7-.48c.34-.06,1.21-.13,2.62-.19.41,0,.84,0,1.29,0l1.06-.07.43,0c.16,0,.24-.45.24-1.27s0-1.69.1-2.61.22-1.49.48-1.68a.88.88,0,0,1,.57-.2,1.22,1.22,0,0,1,.87.34,1.68,1.68,0,0,1,.38,1.2c0,.1,0,.72-.1,1.87s-.09,1.67-.09,1.92a1.19,1.19,0,0,0,0,.22,1.58,1.58,0,0,1,0,.26l.91-.05c.67,0,1.44,0,2.3,0a2.52,2.52,0,0,1,1.92.52,1.17,1.17,0,0,1,.29.77.94.94,0,0,1-.53.87,4.72,4.72,0,0,1-.79.07l-1.66,0c-.67,0-1.2,0-1.58.05l-1,0-.1,3.41c0,.44,0,1,0,1.7s-.06,1.29-.08,1.8,0,.91,0,1.2v1.32a14.8,14.8,0,0,0,0,1.51c0,.35.08.8.17,1.35a3.06,3.06,0,0,0,.43,1.29,1.47,1.47,0,0,0,.74.63H43c.39,0,.86-.58,1.42-1.73S45.51,38.4,46,38.4a1.19,1.19,0,0,1,.48.14,1,1,0,0,1,.58.92,4.71,4.71,0,0,1-.53,1.72c-.87,2-1.94,2.93-3.22,2.93h0q-4.08,0-4.08-6.86V36.14q.19-6.72.2-7.92Z" transform="translate(-15.22 -3.84)"/><path class="cls-1" d="M70.28,36.77a1.38,1.38,0,0,1,1.12.48,1.67,1.67,0,0,1,.41,1.15,1.2,1.2,0,0,1,0,.43,11.24,11.24,0,0,1-.64,1.8,20.82,20.82,0,0,1-1.56,2.83,23.23,23.23,0,0,1-2.36,3.1A12.08,12.08,0,0,1,64,49a8,8,0,0,1-3.89,1q-4,0-7-3.79A22.28,22.28,0,0,1,49,36.53,41.27,41.27,0,0,1,48.39,29a42.68,42.68,0,0,1,.72-8.3q1.72-8.84,6.53-13.63,3.21-3.22,6.72-3.22A8.09,8.09,0,0,1,67,5.3,11,11,0,0,1,70.3,8.74a25.77,25.77,0,0,1,1.85,3.67,7.73,7.73,0,0,1,.67,2.47A1.43,1.43,0,0,1,72.34,16a1.58,1.58,0,0,1-1.1.46,1.22,1.22,0,0,1-1-.48,8.21,8.21,0,0,1-1-1.92c-.39-.87-.69-1.52-.91-2s-.57-1.06-1-1.83a7.45,7.45,0,0,0-1.58-1.89,5.52,5.52,0,0,0-2-1.08,4.08,4.08,0,0,0-1.3-.19q-3.41,0-6.57,4.77T51.7,24.91c-.06.45-.1,1.71-.1,3.79a44.75,44.75,0,0,0,.2,4.9q1.14,8,4.56,11.42a5.28,5.28,0,0,0,3.79,1.78,6.52,6.52,0,0,0,4.61-2.33,19,19,0,0,0,3.79-6.12c.16-.35.29-.61.38-.79a1.79,1.79,0,0,1,.51-.53A1.42,1.42,0,0,1,70.28,36.77Z" transform="translate(-15.22 -3.84)"/><path class="cls-1" d="M75.46,29.66c.13-1,.5-1.48,1.1-1.48a1.09,1.09,0,0,1,1.2,1,2.35,2.35,0,0,1,0,.67q0,1.2-.09,2.16.28-.28.57-.63c1.09-1.31,2.15-2,3.17-2s1.71.62,2.26,1.87a2.77,2.77,0,0,0,.62.79,1.39,1.39,0,0,1,.48.89v.14a1.14,1.14,0,0,1-1.15,1.15c-.9,0-1.63-.65-2.21-2q-.09-.24-.24-.24c-.26,0-.7.38-1.34,1.15a9.79,9.79,0,0,0-1.83,3.89,8,8,0,0,1-.38,1.29,0,0,0,0,0,0,0,12.43,12.43,0,0,0-.1,1.92v1.25c0,1.57-.12,2.48-.38,2.73a1.21,1.21,0,0,1-.91.34c-.74,0-1.12-.5-1.15-1.49V42Q75.08,33.07,75.46,29.66Z" transform="translate(-15.22 -3.84)"/><path class="cls-1" d="M90.34,29.62a3.8,3.8,0,0,1,1.82-.44,4.38,4.38,0,0,1,2.67,1,6.22,6.22,0,0,1,2,2.93A8.29,8.29,0,0,1,97.3,36a9.88,9.88,0,0,1-1.58,5.47,4.59,4.59,0,0,1-3.89,2.45,6.11,6.11,0,0,1-.91-.09,4.73,4.73,0,0,1-3.12-2.45,9,9,0,0,1-1.11-4.51,9.9,9.9,0,0,1,.94-4.3A6,6,0,0,1,90.34,29.62Zm2.11,2.11a2.55,2.55,0,0,0-2.21,1.53,7.62,7.62,0,0,0-1,2.93,4.45,4.45,0,0,0,0,.82,6.29,6.29,0,0,0,.53,2.66A2.73,2.73,0,0,0,91,41.18a1.56,1.56,0,0,0,.63.15q1.33,0,2.25-1.95a8.41,8.41,0,0,0,.91-3.57v-.19c0-.29-.07-.6-.12-.92a7.63,7.63,0,0,0-.31-1.24,2.88,2.88,0,0,0-.74-1.25A1.66,1.66,0,0,0,92.45,31.73Z" transform="translate(-15.22 -3.84)"/><path class="cls-1" d="M107.19,39.89a4.68,4.68,0,0,1-.34,1.08,7,7,0,0,1-1.2,1.94,2.49,2.49,0,0,1-2,1.06,3.73,3.73,0,0,1-.62-.1q-2.07-.52-3-3.41a13.18,13.18,0,0,1-.38-3.74,20.76,20.76,0,0,1,.5-4.8c.34-1.38.88-2.06,1.61-2.06a.94.94,0,0,1,.34,0A1,1,0,0,1,103,31a2.57,2.57,0,0,1-.14.72,13,13,0,0,0-.82,5.14q0,4.22,1.35,4.7h0l0,0q1.07,0,2.59-7.06a28.85,28.85,0,0,1,.65-2.93,1.28,1.28,0,0,1,.65-.67,1,1,0,0,1,.43-.09c.71,0,1.12.4,1.25,1.2a10.94,10.94,0,0,1,0,1.2c0,.25,0,.68,0,1.27s0,1,0,1.37a10.34,10.34,0,0,0,1,4.8c.32.57.53.86.62.86s.18-.1.34-.29q2.16-2.44,2.16-7.92V33c0-.2,0-.44,0-.72s0-.48,0-.58a2.27,2.27,0,0,1,.39-1.58,1.12,1.12,0,0,1,.67-.29,1.15,1.15,0,0,1,.84.36,1.42,1.42,0,0,1,.41.89c.06,1.08.09,1.85.09,2.3A17.17,17.17,0,0,1,114,41q-1.47,2.92-3.34,2.93a1.79,1.79,0,0,1-.48-.05,2.32,2.32,0,0,1-.77-.36,3,3,0,0,1-.67-.62c-.19-.24-.37-.5-.55-.77a8.4,8.4,0,0,1-.46-.79c-.12-.26-.23-.49-.31-.7l-.21-.55Z" transform="translate(-15.22 -3.84)"/><path class="cls-1" d="M127.73,15.84a1.14,1.14,0,0,1,1.06.58l.19.38.1,13v7.87c0,3.46,0,5.28-.1,5.47a.92.92,0,0,1-.86.67,1.21,1.21,0,0,1-1.11-.76l-.14-.34-.63.58a4.73,4.73,0,0,1-3.16,1.39,2.71,2.71,0,0,1-.87-.1A6,6,0,0,1,118.52,41a6.69,6.69,0,0,1-.53-2.35,11.1,11.1,0,0,1-.1-1.59c0-.12,0-.44.1-1a11.64,11.64,0,0,1,1.2-3.64,5,5,0,0,1,1.92-2.21,4.55,4.55,0,0,1,2.25-.58,5,5,0,0,1,3,1l.38.29,0-.34v-.86c0-.29,0-1.15,0-2.59s0-2.66,0-3.65V20.35a33.22,33.22,0,0,1,.1-3.93A.81.81,0,0,1,127.73,15.84ZM123.6,31.92l-.14,0-.14,0a2.06,2.06,0,0,0-1.44.65,5.84,5.84,0,0,0-1.11,2,7.93,7.93,0,0,0-.62,2.83c0,.19,0,.58.09,1.15a5.33,5.33,0,0,0,.44,1.92,3.46,3.46,0,0,0,1.68,1.83,1.65,1.65,0,0,0,.48.09,2,2,0,0,0,1.1-.33,4.37,4.37,0,0,0,1.82-2,5.06,5.06,0,0,0,.63-2.35v-.44c0-.06,0-.2,0-.4s0-.38,0-.51,0-.21,0-.33a2.16,2.16,0,0,0,0-.29v-.39a3.47,3.47,0,0,0-1.2-2.88,2.48,2.48,0,0,0-1.54-.62Z" transform="translate(-15.22 -3.84)"/><ellipse class="cls-1" cx="40.28" cy="17.88" rx="1.5" ry="2.5"/><ellipse class="cls-1" cx="51.28" cy="14.88" rx="1.5" ry="2.5"/></g></g></svg>